<?xml version="1.0" encoding="UTF-8" standalone="no"?>
<svg
   xmlns:dc="http://purl.org/dc/elements/1.1/"
   xmlns:cc="http://creativecommons.org/ns#"
   xmlns:rdf="http://www.w3.org/1999/02/22-rdf-syntax-ns#"
   xmlns:svg="http://www.w3.org/2000/svg"
   xmlns="http://www.w3.org/2000/svg"
   xmlns:sodipodi="http://sodipodi.sourceforge.net/DTD/sodipodi-0.dtd"
   xmlns:inkscape="http://www.inkscape.org/namespaces/inkscape"
   id="icons"
   enable-background="new 0 0 64 64"
   height="512"
   viewBox="0 0 64 64"
   width="512"
   version="1.1"
   sodipodi:docname="color-picker.svg"
   inkscape:version="0.92.4 (5da689c313, 2019-01-14)">
  <metadata
     id="metadata61">
    <rdf:RDF>
      <cc:Work
         rdf:about="">
        <dc:format>image/svg+xml</dc:format>
        <dc:type
           rdf:resource="http://purl.org/dc/dcmitype/StillImage" />
        <dc:title></dc:title>
      </cc:Work>
    </rdf:RDF>
  </metadata>
  <defs
     id="defs59" />
  <sodipodi:namedview
     pagecolor="#ffffff"
     bordercolor="#666666"
     borderopacity="1"
     objecttolerance="10"
     gridtolerance="10"
     guidetolerance="10"
     inkscape:pageopacity="0"
     inkscape:pageshadow="2"
     inkscape:window-width="1920"
     inkscape:window-height="1017"
     id="namedview57"
     showgrid="false"
     inkscape:zoom="1.4142136"
     inkscape:cx="225.88695"
     inkscape:cy="315.57889"
     inkscape:window-x="-8"
     inkscape:window-y="-8"
     inkscape:window-maximized="1"
     inkscape:current-layer="icons" />
  <path
     d="m63 32h-10c0-5.801-2.35-11.051-6.15-14.851l7.07-7.069c5.61 5.609 9.08 13.359 9.08 21.92z"
     fill="#f6bb42"
     id="path2" />
  <path
     d="m53 32h10c0 8.55-3.46 16.3-9.08 21.909l-7.07-7.06c3.8-3.799 6.15-9.049 6.15-14.849z"
     fill="#8cc152"
     id="path4" />
  <path
     d="m53.92 53.909v.011c-5.61 5.609-13.35 9.08-21.92 9.08v-10c5.8 0 11.05-2.351 14.85-6.15z"
     fill="#37bc9b"
     id="path6" />
  <path
     d="m53.92 10.08-7.07 7.069c-3.8-3.799-9.05-6.149-14.85-6.149v-10c8.57 0 16.31 3.47 21.92 9.08z"
     fill="#e9573f"
     id="path8" />
  <path
     d="m53 32h-9.99-.01c0-3.04-1.23-5.79-3.22-7.78l7.069-7.07c3.801 3.799 6.151 9.049 6.151 14.85z"
     fill="#ffce54"
     id="path10" />
  <path
     d="m39.78 39.779 7.069 7.07c-3.799 3.8-9.049 6.151-14.849 6.151v-10c3.04 0 5.79-1.23 7.78-3.221z"
     fill="#48cfad"
     id="path12" />
  <path
     d="m32 53v10c-8.56 0-16.31-3.471-21.92-9.08l7.07-7.07c3.8 3.799 9.06 6.15 14.85 6.15z"
     fill="#4a89dc"
     id="path14" />
  <path
     d="m32 43v10c-5.79 0-11.05-2.351-14.85-6.15l7.069-7.07c1.991 1.99 4.751 3.22 7.781 3.22z"
     fill="#5d9cec"
     id="path16" />
  <path
     d="m32 11v10c-3.03 0-5.78 1.229-7.77 3.22h-.01l-7.069-7.07c3.799-3.8 9.059-6.15 14.849-6.15z"
     fill="#ed5565"
     id="path18" />
  <path
     d="m17.15 46.85-7.07 7.07c-5.61-5.61-9.08-13.36-9.08-21.92h10c0 5.8 2.35 11.05 6.15 14.85z"
     fill="#967adc"
     id="path20" />
  <path
     d="m43.01 32h9.99c0 5.8-2.35 11.05-6.15 14.85l-7.069-7.07c1.989-1.99 3.219-4.751 3.219-7.78z"
     fill="#a0d468"
     id="path22" />
  <path
     d="m17.15 17.149 7.069 7.07c-1.989 1.991-3.219 4.741-3.219 7.781h-10c0-5.801 2.35-11.051 6.15-14.851z"
     fill="#ec87c0"
     id="path24" />
  <path
     d="m24.22 39.779-7.069 7.07c-3.801-3.799-6.151-9.049-6.151-14.849h10c0 3.029 1.23 5.79 3.22 7.779z"
     fill="#ac92ec"
     id="path26" />
  <path
     d="m10.08 10.08 7.07 7.069c-3.8 3.8-6.15 9.05-6.15 14.851h-10c0-8.561 3.47-16.311 9.08-21.92z"
     fill="#d770ad"
     id="path28" />
  <path
     d="m46.85 17.149-7.069 7.07c-1.991-1.99-4.741-3.219-7.781-3.219v-10c5.8 0 11.05 2.35 14.85 6.149z"
     fill="#fc6e51"
     id="path30" />
  <path
     d="m32 1v10c-5.79 0-11.05 2.35-14.85 6.149l-7.07-7.069c5.61-5.61 13.36-9.08 21.92-9.08z"
     fill="#da4453"
     id="path32" />
  <path
     d="m32 64c-17.645 0-32-14.355-32-32s14.355-32 32-32 32 14.355 32 32-14.355 32-32 32zm0-62c-16.542 0-30 13.458-30 30s13.458 30 30 30 30-13.458 30-30-13.458-30-30-30z"
     id="path34"
     style="fill:#000000;fill-opacity:1" />
  <path
     d="m32 54c-12.131 0-22-9.869-22-22s9.869-22 22-22 22 9.869 22 22-9.869 22-22 22zm0-42c-11.028 0-20 8.972-20 20s8.972 20 20 20 20-8.972 20-20-8.972-20-20-20z"
     id="path36" />
  <path
     d="m32 44c-6.617 0-12-5.383-12-12s5.383-12 12-12 12 5.383 12 12-5.383 12-12 12zm0-22c-5.514 0-10 4.486-10 10s4.486 10 10 10 10-4.486 10-10-4.486-10-10-10z"
     id="path38" />
  <path
     d="m32 22c-.553 0-1-.447-1-1v-20c0-.553.447-1 1-1s1 .447 1 1v20c0 .553-.447 1-1 1z"
     id="path40" />
  <path
     d="m32 64c-.553 0-1-.447-1-1v-20c0-.553.447-1 1-1s1 .447 1 1v20c0 .553-.447 1-1 1z"
     id="path42" />
  <path
     d="m24.223 25.221c-.256 0-.512-.098-.707-.293l-14.143-14.142c-.391-.391-.391-1.023 0-1.414s1.023-.391 1.414 0l14.143 14.142c.391.391.391 1.023 0 1.414-.196.195-.451.293-.707.293z"
     id="path44" />
  <path
     d="m53.921 54.92c-.256 0-.512-.098-.707-.293l-14.142-14.143c-.391-.391-.391-1.023 0-1.414s1.023-.391 1.414 0l14.142 14.143c.391.391.391 1.023 0 1.414-.195.195-.451.293-.707.293z"
     id="path46" />
  <path
     d="m1 32.999c-.552 0-1-.447-1-1 0-.552.447-1 1-1l20-.001c.552 0 1 .447 1 1 0 .552-.447 1-1 1z"
     id="path48" />
  <path
     d="m63 32.998h-19.999c-.553 0-1-.447-1-1s.447-1 1-1h19.999c.553 0 1 .447 1 1s-.447 1-1 1z"
     id="path50" />
  <path
     d="m10.08 54.92c-.256 0-.512-.098-.707-.293-.391-.391-.391-1.023 0-1.414l14.141-14.144c.391-.391 1.023-.391 1.414 0s.391 1.023 0 1.414l-14.141 14.144c-.195.195-.451.293-.707.293z"
     id="path52" />
  <path
     d="m39.777 25.219c-.256 0-.512-.098-.707-.293-.391-.391-.391-1.023 0-1.414l14.143-14.141c.391-.391 1.023-.391 1.414 0s.391 1.023 0 1.414l-14.143 14.141c-.195.195-.451.293-.707.293z"
     id="path54" />
</svg>
