<?xml version="1.0" encoding="iso-8859-1"?>
<!-- Generator: Adobe Illustrator 19.0.0, SVG Export Plug-In . SVG Version: 6.00 Build 0)  -->
<svg version="1.1" id="Capa_1" xmlns="http://www.w3.org/2000/svg" xmlns:xlink="http://www.w3.org/1999/xlink" x="0px" y="0px"
	 viewBox="0 0 512 512" style="enable-background:new 0 0 512 512;" xml:space="preserve">
<g>
	<g>
		<path d="M256,31C115.39,31,0,145.39,0,286v120c0,24.814,20.186,45,45,45h15V301H45c-5.284,0-10.285,1.082-15,2.763V286
			C30,161.928,131.928,61,256,61s226,100.928,226,225v17.763c-4.715-1.681-9.716-2.763-15-2.763h-15v150h15
			c24.814,0,45-20.186,45-45V286C512,145.39,396.61,31,256,31z"/>
	</g>
</g>
<g>
	<g>
		<path d="M135,271h-15c-16.569,0-30,13.431-30,30v150c0,16.569,13.431,30,30,30h15c8.284,0,15-6.716,15-15V286
			C150,277.716,143.284,271,135,271z"/>
	</g>
</g>
<g>
	<g>
		<path d="M392,271h-15c-8.284,0-15,6.716-15,15v180c0,8.284,6.716,15,15,15h15c16.569,0,30-13.431,30-30V301
			C422,284.431,408.569,271,392,271z"/>
	</g>
</g>
<g>
</g>
<g>
</g>
<g>
</g>
<g>
</g>
<g>
</g>
<g>
</g>
<g>
</g>
<g>
</g>
<g>
</g>
<g>
</g>
<g>
</g>
<g>
</g>
<g>
</g>
<g>
</g>
<g>
</g>
</svg>
