<?xml version="1.0" encoding="UTF-8" standalone="no"?>
<!-- Generator: Adobe Illustrator 19.0.0, SVG Export Plug-In . SVG Version: 6.00 Build 0)  -->

<svg
   xmlns:dc="http://purl.org/dc/elements/1.1/"
   xmlns:cc="http://creativecommons.org/ns#"
   xmlns:rdf="http://www.w3.org/1999/02/22-rdf-syntax-ns#"
   xmlns:svg="http://www.w3.org/2000/svg"
   xmlns="http://www.w3.org/2000/svg"
   xmlns:sodipodi="http://sodipodi.sourceforge.net/DTD/sodipodi-0.dtd"
   xmlns:inkscape="http://www.inkscape.org/namespaces/inkscape"
   version="1.1"
   id="Capa_1"
   x="0px"
   y="0px"
   viewBox="0 0 512 512"
   style="enable-background:new 0 0 512 512;"
   xml:space="preserve"
   sodipodi:docname="headphones.svg"
   inkscape:version="0.92.4 (5da689c313, 2019-01-14)"><metadata
   id="metadata55"><rdf:RDF><cc:Work
       rdf:about=""><dc:format>image/svg+xml</dc:format><dc:type
         rdf:resource="http://purl.org/dc/dcmitype/StillImage" /><dc:title></dc:title></cc:Work></rdf:RDF></metadata><defs
   id="defs53" /><sodipodi:namedview
   pagecolor="#ffffff"
   bordercolor="#666666"
   borderopacity="1"
   objecttolerance="10"
   gridtolerance="10"
   guidetolerance="10"
   inkscape:pageopacity="0"
   inkscape:pageshadow="2"
   inkscape:window-width="1920"
   inkscape:window-height="1017"
   id="namedview51"
   showgrid="false"
   inkscape:zoom="0.4609375"
   inkscape:cx="-14.101695"
   inkscape:cy="256"
   inkscape:window-x="-8"
   inkscape:window-y="-8"
   inkscape:window-maximized="1"
   inkscape:current-layer="Capa_1" />
<g
   id="g6"
   style="fill:#aaaabe;fill-opacity:1">
	<g
   id="g4"
   style="fill:#aaaabe;fill-opacity:1">
		<path
   d="M256,31C115.39,31,0,145.39,0,286v120c0,24.814,20.186,45,45,45h15V301H45c-5.284,0-10.285,1.082-15,2.763V286    C30,161.928,131.928,61,256,61s226,100.928,226,225v17.763c-4.715-1.681-9.716-2.763-15-2.763h-15v150h15    c24.814,0,45-20.186,45-45V286C512,145.39,396.61,31,256,31z"
   id="path2"
   style="fill:#aaaabe;fill-opacity:1" />
	</g>
</g>
<g
   id="g12"
   style="fill:#9696aa;fill-opacity:1">
	<g
   id="g10"
   style="fill:#9696aa;fill-opacity:1">
		<path
   d="M135,271h-15c-16.569,0-30,13.431-30,30v150c0,16.569,13.431,30,30,30h15c8.284,0,15-6.716,15-15V286    C150,277.716,143.284,271,135,271z"
   id="path8"
   style="fill:#9696aa;fill-opacity:1" />
	</g>
</g>
<g
   id="g18"
   style="fill:#9696aa;fill-opacity:1">
	<g
   id="g16"
   style="fill:#9696aa;fill-opacity:1">
		<path
   d="M392,271h-15c-8.284,0-15,6.716-15,15v180c0,8.284,6.716,15,15,15h15c16.569,0,30-13.431,30-30V301    C422,284.431,408.569,271,392,271z"
   id="path14"
   style="fill:#9696aa;fill-opacity:1" />
	</g>
</g>
<g
   id="g20"
   style="fill:#aaaa00;fill-opacity:1">
</g>
<g
   id="g22"
   style="fill:#aaaa00;fill-opacity:1">
</g>
<g
   id="g24"
   style="fill:#aaaa00;fill-opacity:1">
</g>
<g
   id="g26"
   style="fill:#aaaa00;fill-opacity:1">
</g>
<g
   id="g28"
   style="fill:#aaaa00;fill-opacity:1">
</g>
<g
   id="g30"
   style="fill:#aaaa00;fill-opacity:1">
</g>
<g
   id="g32"
   style="fill:#aaaa00;fill-opacity:1">
</g>
<g
   id="g34"
   style="fill:#aaaa00;fill-opacity:1">
</g>
<g
   id="g36"
   style="fill:#aaaa00;fill-opacity:1">
</g>
<g
   id="g38"
   style="fill:#aaaa00;fill-opacity:1">
</g>
<g
   id="g40"
   style="fill:#aaaa00;fill-opacity:1">
</g>
<g
   id="g42"
   style="fill:#aaaa00;fill-opacity:1">
</g>
<g
   id="g44"
   style="fill:#aaaa00;fill-opacity:1">
</g>
<g
   id="g46"
   style="fill:#aaaa00;fill-opacity:1">
</g>
<g
   id="g48"
   style="fill:#aaaa00;fill-opacity:1">
</g>
</svg>