<?xml version="1.0" encoding="UTF-8" standalone="no"?>
<!-- Generator: Adobe Illustrator 16.0.0, SVG Export Plug-In . SVG Version: 6.00 Build 0)  -->

<svg
   xmlns:dc="http://purl.org/dc/elements/1.1/"
   xmlns:cc="http://creativecommons.org/ns#"
   xmlns:rdf="http://www.w3.org/1999/02/22-rdf-syntax-ns#"
   xmlns:svg="http://www.w3.org/2000/svg"
   xmlns="http://www.w3.org/2000/svg"
   xmlns:sodipodi="http://sodipodi.sourceforge.net/DTD/sodipodi-0.dtd"
   xmlns:inkscape="http://www.inkscape.org/namespaces/inkscape"
   version="1.1"
   id="Capa_1"
   x="0px"
   y="0px"
   width="284.929px"
   height="284.929px"
   viewBox="0 0 284.929 284.929"
   style="enable-background:new 0 0 284.929 284.929;"
   xml:space="preserve"
   sodipodi:docname="shrink.svg"
   inkscape:version="0.92.4 (5da689c313, 2019-01-14)"><metadata
   id="metadata41"><rdf:RDF><cc:Work
       rdf:about=""><dc:format>image/svg+xml</dc:format><dc:type
         rdf:resource="http://purl.org/dc/dcmitype/StillImage" /><dc:title></dc:title></cc:Work></rdf:RDF></metadata><defs
   id="defs39" /><sodipodi:namedview
   pagecolor="#ffffff"
   bordercolor="#666666"
   borderopacity="1"
   objecttolerance="10"
   gridtolerance="10"
   guidetolerance="10"
   inkscape:pageopacity="0"
   inkscape:pageshadow="2"
   inkscape:window-width="1920"
   inkscape:window-height="1017"
   id="namedview37"
   showgrid="false"
   inkscape:zoom="0.82827656"
   inkscape:cx="-7.8476204"
   inkscape:cy="142.46449"
   inkscape:window-x="-8"
   inkscape:window-y="-8"
   inkscape:window-maximized="1"
   inkscape:current-layer="Capa_1" />
<g
   id="g4"
   transform="matrix(1,0,0,-1,0,284.929)"
   style="fill:#aaaabe;fill-opacity:1">
	<path
   d="M 282.082,195.285 149.028,62.24 c -1.901,-1.903 -4.088,-2.856 -6.562,-2.856 -2.474,0 -4.665,0.953 -6.567,2.856 L 2.856,195.285 C 0.95,197.191 0,199.378 0,201.853 c 0,2.474 0.953,4.664 2.856,6.566 l 14.272,14.271 c 1.903,1.903 4.093,2.854 6.567,2.854 2.474,0 4.664,-0.951 6.567,-2.854 L 142.466,110.488 254.674,222.697 c 1.902,1.903 4.093,2.848 6.563,2.848 2.478,0 4.668,-0.951 6.57,-2.848 l 14.274,-14.277 c 1.902,-1.902 2.847,-4.093 2.847,-6.566 10e-4,-2.476 -0.944,-4.666 -2.846,-6.569 z"
   id="path2"
   inkscape:connector-curvature="0"
   style="fill:#aaaabe;fill-opacity:1" />
</g>
<g
   id="g6"
   transform="matrix(1,0,0,-1,0,284.929)"
   style="fill:#aaaabe;fill-opacity:1">
</g>
<g
   id="g8"
   transform="matrix(1,0,0,-1,0,284.929)"
   style="fill:#aaaabe;fill-opacity:1">
</g>
<g
   id="g10"
   transform="matrix(1,0,0,-1,0,284.929)"
   style="fill:#aaaabe;fill-opacity:1">
</g>
<g
   id="g12"
   transform="matrix(1,0,0,-1,0,284.929)"
   style="fill:#aaaabe;fill-opacity:1">
</g>
<g
   id="g14"
   transform="matrix(1,0,0,-1,0,284.929)"
   style="fill:#aaaabe;fill-opacity:1">
</g>
<g
   id="g16"
   transform="matrix(1,0,0,-1,0,284.929)"
   style="fill:#aaaabe;fill-opacity:1">
</g>
<g
   id="g18"
   transform="matrix(1,0,0,-1,0,284.929)"
   style="fill:#aaaabe;fill-opacity:1">
</g>
<g
   id="g20"
   transform="matrix(1,0,0,-1,0,284.929)"
   style="fill:#aaaabe;fill-opacity:1">
</g>
<g
   id="g22"
   transform="matrix(1,0,0,-1,0,284.929)"
   style="fill:#aaaabe;fill-opacity:1">
</g>
<g
   id="g24"
   transform="matrix(1,0,0,-1,0,284.929)"
   style="fill:#aaaabe;fill-opacity:1">
</g>
<g
   id="g26"
   transform="matrix(1,0,0,-1,0,284.929)"
   style="fill:#aaaabe;fill-opacity:1">
</g>
<g
   id="g28"
   transform="matrix(1,0,0,-1,0,284.929)"
   style="fill:#aaaabe;fill-opacity:1">
</g>
<g
   id="g30"
   transform="matrix(1,0,0,-1,0,284.929)"
   style="fill:#aaaabe;fill-opacity:1">
</g>
<g
   id="g32"
   transform="matrix(1,0,0,-1,0,284.929)"
   style="fill:#aaaabe;fill-opacity:1">
</g>
<g
   id="g34"
   transform="matrix(1,0,0,-1,0,284.929)"
   style="fill:#aaaabe;fill-opacity:1">
</g>
</svg>