<?xml version="1.0" encoding="UTF-8" standalone="no"?>
<!-- Generator: Adobe Illustrator 19.0.0, SVG Export Plug-In . SVG Version: 6.00 Build 0)  -->

<svg
   xmlns:dc="http://purl.org/dc/elements/1.1/"
   xmlns:cc="http://creativecommons.org/ns#"
   xmlns:rdf="http://www.w3.org/1999/02/22-rdf-syntax-ns#"
   xmlns:svg="http://www.w3.org/2000/svg"
   xmlns="http://www.w3.org/2000/svg"
   xmlns:sodipodi="http://sodipodi.sourceforge.net/DTD/sodipodi-0.dtd"
   xmlns:inkscape="http://www.inkscape.org/namespaces/inkscape"
   version="1.1"
   id="Capa_1"
   x="0px"
   y="0px"
   viewBox="0 0 489.389 489.389"
   style="enable-background:new 0 0 489.389 489.389;"
   xml:space="preserve"
   sodipodi:docname="sort.svg"
   inkscape:version="0.92.4 (5da689c313, 2019-01-14)"><metadata
   id="metadata45"><rdf:RDF><cc:Work
       rdf:about=""><dc:format>image/svg+xml</dc:format><dc:type
         rdf:resource="http://purl.org/dc/dcmitype/StillImage" /><dc:title></dc:title></cc:Work></rdf:RDF></metadata><defs
   id="defs43" /><sodipodi:namedview
   pagecolor="#ffffff"
   bordercolor="#666666"
   borderopacity="1"
   objecttolerance="10"
   gridtolerance="10"
   guidetolerance="10"
   inkscape:pageopacity="0"
   inkscape:pageshadow="2"
   inkscape:window-width="1920"
   inkscape:window-height="1017"
   id="namedview41"
   showgrid="false"
   inkscape:zoom="0.48223396"
   inkscape:cx="-13.478935"
   inkscape:cy="244.6945"
   inkscape:window-x="-8"
   inkscape:window-y="-8"
   inkscape:window-maximized="1"
   inkscape:current-layer="Capa_1" />
<g
   id="g8"
   style="fill:#aaaabe;fill-opacity:1">
	<g
   id="g6"
   style="fill:#aaaabe;fill-opacity:1">
		<path
   d="M261.294,326.102c-8.3-7.3-21.8-6.2-29.1,2.1l-77,86.8v-346.9c0-11.4-9.4-20.8-20.8-20.8s-20.8,9.4-20.8,20.8v346.9    l-77-86.8c-8.3-8.3-20.8-9.4-29.1-2.1c-8.3,8.3-9.4,20.8-2.1,29.1l113.4,126.9c8.5,10.5,23.5,8.9,30.2,0l114.4-126.9    C270.694,347.002,269.694,333.402,261.294,326.102z"
   id="path2"
   style="fill:#aaaabe;fill-opacity:1" />
		<path
   d="M483.994,134.702l-112.4-126.9c-10-10.1-22.5-10.7-31.2,0l-114.4,126.9c-7.3,8.3-6.2,21.8,2.1,29.1    c12.8,10.2,25.7,3.2,29.1-2.1l77-86.8v345.9c0,11.4,9.4,20.8,20.8,20.8s20.8-8.3,20.8-19.8v-346.8l77,86.8    c8.3,8.3,20.8,9.4,29.1,2.1C490.194,155.502,491.294,143.002,483.994,134.702z"
   id="path4"
   style="fill:#aaaabe;fill-opacity:1" />
	</g>
</g>
<g
   id="g10"
   style="fill:#aaaabe;fill-opacity:1">
</g>
<g
   id="g12"
   style="fill:#aaaabe;fill-opacity:1">
</g>
<g
   id="g14"
   style="fill:#aaaabe;fill-opacity:1">
</g>
<g
   id="g16"
   style="fill:#aaaabe;fill-opacity:1">
</g>
<g
   id="g18"
   style="fill:#aaaabe;fill-opacity:1">
</g>
<g
   id="g20"
   style="fill:#aaaabe;fill-opacity:1">
</g>
<g
   id="g22"
   style="fill:#aaaabe;fill-opacity:1">
</g>
<g
   id="g24"
   style="fill:#aaaabe;fill-opacity:1">
</g>
<g
   id="g26"
   style="fill:#aaaabe;fill-opacity:1">
</g>
<g
   id="g28"
   style="fill:#aaaabe;fill-opacity:1">
</g>
<g
   id="g30"
   style="fill:#aaaabe;fill-opacity:1">
</g>
<g
   id="g32"
   style="fill:#aaaabe;fill-opacity:1">
</g>
<g
   id="g34"
   style="fill:#aaaabe;fill-opacity:1">
</g>
<g
   id="g36"
   style="fill:#aaaabe;fill-opacity:1">
</g>
<g
   id="g38"
   style="fill:#aaaabe;fill-opacity:1">
</g>
</svg>