<?xml version="1.0" encoding="UTF-8" standalone="no"?>
<!-- Generator: Adobe Illustrator 17.1.0, SVG Export Plug-In . SVG Version: 6.00 Build 0)  -->

<svg
   xmlns:dc="http://purl.org/dc/elements/1.1/"
   xmlns:cc="http://creativecommons.org/ns#"
   xmlns:rdf="http://www.w3.org/1999/02/22-rdf-syntax-ns#"
   xmlns:svg="http://www.w3.org/2000/svg"
   xmlns="http://www.w3.org/2000/svg"
   xmlns:sodipodi="http://sodipodi.sourceforge.net/DTD/sodipodi-0.dtd"
   xmlns:inkscape="http://www.inkscape.org/namespaces/inkscape"
   version="1.1"
   id="Capa_1"
   x="0px"
   y="0px"
   viewBox="0 0 227.406 227.406"
   style="enable-background:new 0 0 227.406 227.406;"
   xml:space="preserve"
   sodipodi:docname="zoom-in.svg"
   inkscape:version="0.92.4 (5da689c313, 2019-01-14)"><metadata
   id="metadata43"><rdf:RDF><cc:Work
       rdf:about=""><dc:format>image/svg+xml</dc:format><dc:type
         rdf:resource="http://purl.org/dc/dcmitype/StillImage" /><dc:title></dc:title></cc:Work></rdf:RDF></metadata><defs
   id="defs41" /><sodipodi:namedview
   pagecolor="#ffffff"
   bordercolor="#666666"
   borderopacity="1"
   objecttolerance="10"
   gridtolerance="10"
   guidetolerance="10"
   inkscape:pageopacity="0"
   inkscape:pageshadow="2"
   inkscape:window-width="1920"
   inkscape:window-height="1017"
   id="namedview39"
   showgrid="false"
   inkscape:zoom="1.0377914"
   inkscape:cx="-6.263301"
   inkscape:cy="113.703"
   inkscape:window-x="-8"
   inkscape:window-y="-8"
   inkscape:window-maximized="1"
   inkscape:current-layer="Capa_1" />
<g
   id="g6"
   style="fill:#aaaabe;fill-opacity:1">
	<path
   style="fill:#aaaabe;fill-opacity:1"
   d="M217.576,214.708l-65.188-67.794c16.139-15.55,26.209-37.355,26.209-61.484   c0-47.106-38.323-85.43-85.43-85.43C46.06,0,7.737,38.323,7.737,85.43c0,47.106,38.323,85.43,85.43,85.43   c17.574,0,33.924-5.339,47.52-14.474l66.077,68.719c1.473,1.531,3.439,2.302,5.407,2.302c1.87,0,3.743-0.695,5.197-2.094   C220.354,222.441,220.447,217.693,217.576,214.708z M22.737,85.43c0-38.835,31.595-70.43,70.43-70.43   c38.835,0,70.43,31.595,70.43,70.43s-31.595,70.43-70.43,70.43C54.332,155.859,22.737,124.265,22.737,85.43z"
   id="path2" />
	<path
   style="fill:#aaaabe;fill-opacity:1"
   d="M131.415,77.93h-30.748V47.182c0-4.143-3.357-7.5-7.5-7.5c-4.143,0-7.5,3.357-7.5,7.5V77.93H54.918   c-4.143,0-7.5,3.357-7.5,7.5s3.357,7.5,7.5,7.5h30.748v30.749c0,4.143,3.357,7.5,7.5,7.5c4.143,0,7.5-3.357,7.5-7.5V92.93h30.748   c4.143,0,7.5-3.357,7.5-7.5S135.557,77.93,131.415,77.93z"
   id="path4" />
</g>
<g
   id="g8"
   style="fill:#aaaabe;fill-opacity:1">
</g>
<g
   id="g10"
   style="fill:#aaaabe;fill-opacity:1">
</g>
<g
   id="g12"
   style="fill:#aaaabe;fill-opacity:1">
</g>
<g
   id="g14"
   style="fill:#aaaabe;fill-opacity:1">
</g>
<g
   id="g16"
   style="fill:#aaaabe;fill-opacity:1">
</g>
<g
   id="g18"
   style="fill:#aaaabe;fill-opacity:1">
</g>
<g
   id="g20"
   style="fill:#aaaabe;fill-opacity:1">
</g>
<g
   id="g22"
   style="fill:#aaaabe;fill-opacity:1">
</g>
<g
   id="g24"
   style="fill:#aaaabe;fill-opacity:1">
</g>
<g
   id="g26"
   style="fill:#aaaabe;fill-opacity:1">
</g>
<g
   id="g28"
   style="fill:#aaaabe;fill-opacity:1">
</g>
<g
   id="g30"
   style="fill:#aaaabe;fill-opacity:1">
</g>
<g
   id="g32"
   style="fill:#aaaabe;fill-opacity:1">
</g>
<g
   id="g34"
   style="fill:#aaaabe;fill-opacity:1">
</g>
<g
   id="g36"
   style="fill:#aaaabe;fill-opacity:1">
</g>
</svg>