<?xml version="1.0" encoding="UTF-8" standalone="no"?>
<!-- Generator: Adobe Illustrator 19.0.0, SVG Export Plug-In . SVG Version: 6.00 Build 0)  -->

<svg
   xmlns:dc="http://purl.org/dc/elements/1.1/"
   xmlns:cc="http://creativecommons.org/ns#"
   xmlns:rdf="http://www.w3.org/1999/02/22-rdf-syntax-ns#"
   xmlns:svg="http://www.w3.org/2000/svg"
   xmlns="http://www.w3.org/2000/svg"
   xmlns:sodipodi="http://sodipodi.sourceforge.net/DTD/sodipodi-0.dtd"
   xmlns:inkscape="http://www.inkscape.org/namespaces/inkscape"
   version="1.1"
   id="Capa_1"
   x="0px"
   y="0px"
   viewBox="0 0 512 512"
   style="enable-background:new 0 0 512 512;"
   xml:space="preserve"
   sodipodi:docname="v-bottom.svg"
   inkscape:version="0.92.4 (5da689c313, 2019-01-14)"><metadata
   id="metadata49"><rdf:RDF><cc:Work
       rdf:about=""><dc:format>image/svg+xml</dc:format><dc:type
         rdf:resource="http://purl.org/dc/dcmitype/StillImage" /><dc:title></dc:title></cc:Work></rdf:RDF></metadata><defs
   id="defs47" /><sodipodi:namedview
   pagecolor="#ffffff"
   bordercolor="#666666"
   borderopacity="1"
   objecttolerance="10"
   gridtolerance="10"
   guidetolerance="10"
   inkscape:pageopacity="0"
   inkscape:pageshadow="2"
   inkscape:window-width="1920"
   inkscape:window-height="1017"
   id="namedview45"
   showgrid="false"
   inkscape:zoom="0.4609375"
   inkscape:cx="-411.11864"
   inkscape:cy="256"
   inkscape:window-x="-8"
   inkscape:window-y="-8"
   inkscape:window-maximized="1"
   inkscape:current-layer="Capa_1" />
















<g
   id="g853"
   transform="translate(37.9661,-75.932203)"><g
     transform="matrix(0.85169492,0,0,0.85169492,0,75.932203)"
     style="fill:#aaaabe;fill-opacity:1"
     id="g6">
	<g
   style="fill:#aaaabe;fill-opacity:1"
   id="g4">
		<rect
   x="0"
   style="fill:#aaaabe;fill-opacity:1"
   id="rect2"
   height="40"
   width="512"
   y="472" />
	</g>
</g><g
     transform="matrix(0.85169492,0,0,0.85169492,0,75.932203)"
     style="fill:#aaaabe;fill-opacity:1"
     id="g12">
	<g
   style="fill:#aaaabe;fill-opacity:1"
   id="g10">
		<polygon
   style="fill:#aaaabe;fill-opacity:1"
   id="polygon8"
   points="236,0 236,352.099 181.062,297.778 152.938,326.222 256.08,428.205 358.143,326.142 329.857,297.858 276,351.715 276,0 " />
	</g>
</g><g
     transform="matrix(0.85169492,0,0,0.85169492,0,75.932203)"
     style="fill:#aaaabe;fill-opacity:1"
     id="g14">
</g><g
     transform="matrix(0.85169492,0,0,0.85169492,0,75.932203)"
     style="fill:#aaaabe;fill-opacity:1"
     id="g16">
</g><g
     transform="matrix(0.85169492,0,0,0.85169492,0,75.932203)"
     style="fill:#aaaabe;fill-opacity:1"
     id="g18">
</g><g
     transform="matrix(0.85169492,0,0,0.85169492,0,75.932203)"
     style="fill:#aaaabe;fill-opacity:1"
     id="g20">
</g><g
     transform="matrix(0.85169492,0,0,0.85169492,0,75.932203)"
     style="fill:#aaaabe;fill-opacity:1"
     id="g22">
</g><g
     transform="matrix(0.85169492,0,0,0.85169492,0,75.932203)"
     style="fill:#aaaabe;fill-opacity:1"
     id="g24">
</g><g
     transform="matrix(0.85169492,0,0,0.85169492,0,75.932203)"
     style="fill:#aaaabe;fill-opacity:1"
     id="g26">
</g><g
     transform="matrix(0.85169492,0,0,0.85169492,0,75.932203)"
     style="fill:#aaaabe;fill-opacity:1"
     id="g28">
</g><g
     transform="matrix(0.85169492,0,0,0.85169492,0,75.932203)"
     style="fill:#aaaabe;fill-opacity:1"
     id="g30">
</g><g
     transform="matrix(0.85169492,0,0,0.85169492,0,75.932203)"
     style="fill:#aaaabe;fill-opacity:1"
     id="g32">
</g><g
     transform="matrix(0.85169492,0,0,0.85169492,0,75.932203)"
     style="fill:#aaaabe;fill-opacity:1"
     id="g34">
</g><g
     transform="matrix(0.85169492,0,0,0.85169492,0,75.932203)"
     style="fill:#aaaabe;fill-opacity:1"
     id="g36">
</g><g
     transform="matrix(0.85169492,0,0,0.85169492,0,75.932203)"
     style="fill:#aaaabe;fill-opacity:1"
     id="g38">
</g><g
     transform="matrix(0.85169492,0,0,0.85169492,0,75.932203)"
     style="fill:#aaaabe;fill-opacity:1"
     id="g40">
</g><g
     transform="matrix(0.85169492,0,0,0.85169492,0,75.932203)"
     style="fill:#aaaabe;fill-opacity:1"
     id="g42">
</g></g>
</svg>